<?xml version="1.0" encoding="iso-8859-1"?>
<svg version="1.1" xmlns="http://www.w3.org/2000/svg" xmlns:xlink="http://www.w3.org/1999/xlink"
  x="0px" y="0px" viewBox="0 0 900 1000" xml:space="preserve" style="color: white">
<g>
	<path style="fill: currentColor;" d="M545.755,725.868v13.25c-7.587,4.031-15.532,6.046-23.831,6.046
		c-10.774,0-19.341-2.978-25.728-8.951c-6.387-5.973-9.575-13.324-9.575-22.067c0-8.745,3.365-16.155,10.093-22.261
		c6.729-6.091,15.517-9.145,26.366-9.145c8.656,0,15.977,1.779,21.965,5.337v13.516c-7.351-4.15-14.317-6.225-20.882-6.225
		c-6.462,0-11.738,1.734-15.829,5.217c-4.105,3.467-6.15,7.899-6.15,13.278c0,5.41,2.015,9.872,6.061,13.399
		c4.032,3.511,9.218,5.277,15.533,5.277c3.126,0,6.135-0.416,9.025-1.231C535.707,730.479,540.02,728.67,545.755,725.868
		L545.755,725.868z M592.115,682.74c10.33,0,18.689,3.128,25.091,9.381c6.388,6.269,9.59,13.547,9.59,21.846
		c0,8.434-3.246,15.74-9.723,21.921c-6.477,6.179-14.806,9.276-24.958,9.276c-10.27,0-18.629-3.082-25.091-9.233
		c-6.446-6.165-9.678-13.471-9.678-21.964c0-8.33,3.201-15.621,9.619-21.86C573.368,685.868,581.755,682.74,592.115,682.74
		L592.115,682.74z M592.115,732.539c5.736,0,10.36-1.705,13.857-5.128c3.513-3.409,5.262-7.899,5.262-13.457
		c0-5.588-1.749-10.079-5.262-13.487c-3.497-3.394-8.121-5.098-13.857-5.098c-5.765,0-10.404,1.704-13.931,5.098
		c-3.512,3.408-5.276,7.899-5.276,13.487c0,5.558,1.763,10.048,5.276,13.457C581.711,730.834,586.35,732.539,592.115,732.539
		L592.115,732.539z M639.987,683.63h27.047c5.869,0,10.641,1.705,14.317,5.098c3.661,3.409,5.499,7.529,5.499,12.36
		c0,6.7-3.483,11.65-10.434,14.865c3.068,1.349,5.973,5.068,8.715,11.13c2.742,6.076,5.395,11.812,7.943,17.192h-16.539
		c-0.994-2.001-2.728-5.81-5.203-11.413c-2.461-5.617-4.579-9.232-6.313-10.818c-1.749-1.6-3.602-2.401-5.603-2.401h-4.312v24.632
		h-15.117V683.63L639.987,683.63z M655.104,694.746v13.782h7.943c2.534,0,4.535-0.592,6.017-1.793
		c1.482-1.201,2.224-2.92,2.224-5.143c0-4.565-2.861-6.847-8.582-6.847H655.104L655.104,694.746z M702.871,683.63h27.062
		c6.136,0,11.011,1.778,14.643,5.336c3.615,3.556,5.424,7.765,5.424,12.628c0,5.038-1.793,9.351-5.365,12.938
		c-3.572,3.586-8.448,5.381-14.614,5.381h-12.033v24.365h-15.117V683.63L702.871,683.63z M717.988,694.746v14.049h7.025
		c6.284,0,9.425-2.342,9.425-7.025c0-2.639-0.845-4.462-2.519-5.484c-1.675-1.024-4.535-1.541-8.597-1.541H717.988L717.988,694.746z
		"/>

	<path style="fill: currentColor;" d="M294.728,733.16v11.116H250V683.63h44.106v11.116h-28.989v12.716h27.655v11.116h-27.655v14.583
		H294.728L294.728,733.16z M365.735,683.63l-28.026,61.535h-6.551L301.74,683.63h16.465l16.066,34.65l15.19-34.65H365.735
		L365.735,683.63z M390.295,683.63v60.646h-15.117V683.63H390.295L390.295,683.63z M452.749,733.16v11.116h-46.24V683.63h15.117
		v49.53H452.749L452.749,733.16z"/>

	<polygon style="fill-rule:evenodd;clip-rule:evenodd;fill: currentColor;" points="435.158,399.887 546.044,310.446 501.189,254.835
		315.423,404.676 495.007,627.317 680.557,477.649 635.464,421.746 524.794,511.014 502.439,483.298 604.735,400.784
		559.086,344.19 456.789,426.704 435.158,399.887 	"/>
</g>
</svg>